<?xml version="1.0" encoding="UTF-8"?> <svg xmlns="http://www.w3.org/2000/svg" width="292.889" height="125.761" viewBox="0 0 292.889 125.761"><g transform="translate(-289.736 -41)"><path d="M430.636,81.917c.05-.073-10.326-.98-16.552,1.5a23.484,23.484,0,0,0-10.548,8.965,33.812,33.812,0,0,0-26.615-12.338c-22.607,0-38.8,20.144-38.8,43.135,0,23.449,16.639,43.577,39.246,43.577,9.029,0,20.129-4.9,26.169-12.478,0,0,4.715,7.23,10.548,8.9,10.533,3.009,16.552,2.258,16.552,2.258s-.13-83.328,0-83.52m-25.4,48.339a14.3,14.3,0,0,1-14.261,14.262h-13a14.3,14.3,0,0,1-14.261-14.262v-13.7a14.3,14.3,0,0,1,14.261-14.261h13a14.3,14.3,0,0,1,14.261,14.261Z" fill="#ffffff"></path><path d="M582.625,81.917c.05-.073-10.325-.98-16.552,1.5a23.485,23.485,0,0,0-10.548,8.965A33.812,33.812,0,0,0,528.91,80.049c-22.607,0-38.8,20.144-38.8,43.135,0,23.449,16.639,43.577,39.246,43.577,9.029,0,20.129-4.9,26.169-12.478,0,0,4.715,7.23,10.548,8.9,10.533,3.009,16.552,2.258,16.552,2.258s-.129-83.328,0-83.52m-25.4,48.339a14.3,14.3,0,0,1-14.261,14.262h-13A14.3,14.3,0,0,1,515.7,130.256v-13.7a14.3,14.3,0,0,1,14.261-14.261h13a14.3,14.3,0,0,1,14.261,14.261Z" fill="#ffffff"></path><path d="M483.6,41.011h-9.753S446.4,39.572,446.4,69.525v2.42h-3.346a3.261,3.261,0,0,0-2.51,3.243V96.521s-.1,2.453,1.569,2.453h4.288V150.95a4.067,4.067,0,0,0,.1.865,3.008,3.008,0,0,0-.114.785,13.639,13.639,0,1,0,27.278,0,2.952,2.952,0,0,0-.157-.906,2.917,2.917,0,0,0,.083-.671V99.258h10.887s1.407-.18,1.407-2.254V74.488a2.571,2.571,0,0,0-2.815-2.3h-9.553v-1.57s-.4-9.99,8.815-9.686h2.59a1.769,1.769,0,0,0,1.481-1.779V43.307s.223-2.3-2.814-2.3" fill="#ffffff"></path><path d="M289.736,150.729a3.668,3.668,0,0,0,.122.953c.011.087.031.171.043.257a3.01,3.01,0,0,0-.075.661,13.639,13.639,0,0,0,27.278,0,2.964,2.964,0,0,0-.185-.986c.01-.1.031-.187.041-.282a3.062,3.062,0,0,0,.065-.4V110.791c3.27-8.336,12.626-9.072,12.626-9.072l2.289-.041c3.064-.054,2.614-2.574,2.614-2.574V83c0-3.064-3.431-2.247-3.431-2.247-9.072,1.553-14.283,11.269-14.283,11.269s-4.475-6.042-9.6-8.605c-4.515-2.257-14.638-2.307-14.638-2.307h.036c-3.229.4-2.891,4.187-2.891,4.187v64.054s-.011-1.242-.011,1.373" fill="#ffffff"></path></g></svg> 